<mxfile host="app.diagrams.net" agent="Mozilla/5.0 (Macintosh; Intel Mac OS X 10_15_7) AppleWebKit/537.36 (KHTML, like Gecko) Chrome/135.0.0.0 Safari/537.36" version="27.1.6">
  <diagram name="Page-1" id="lLfBoaF2sDa57gEaAB9a">
    <mxGraphModel dx="1009" dy="615" grid="1" gridSize="10" guides="1" tooltips="1" connect="1" arrows="1" fold="1" page="1" pageScale="1" pageWidth="850" pageHeight="1100" background="#ffffff" math="0" shadow="0">
      <root>
        <mxCell id="0" />
        <mxCell id="1" parent="0" />
        <mxCell id="gjcAPQD0VYSav7Z1asvZ-147" style="edgeStyle=orthogonalEdgeStyle;rounded=0;orthogonalLoop=1;jettySize=auto;html=1;exitX=0.5;exitY=1;exitDx=0;exitDy=0;entryX=0.5;entryY=0;entryDx=0;entryDy=0;" parent="1" source="gjcAPQD0VYSav7Z1asvZ-148" target="gjcAPQD0VYSav7Z1asvZ-151" edge="1">
          <mxGeometry relative="1" as="geometry" />
        </mxCell>
        <mxCell id="gjcAPQD0VYSav7Z1asvZ-148" value="Landing" style="rounded=0;whiteSpace=wrap;html=1;" parent="1" vertex="1">
          <mxGeometry x="445" y="150" width="130" height="40" as="geometry" />
        </mxCell>
        <mxCell id="gjcAPQD0VYSav7Z1asvZ-149" style="edgeStyle=orthogonalEdgeStyle;rounded=0;orthogonalLoop=1;jettySize=auto;html=1;exitX=0.5;exitY=1;exitDx=0;exitDy=0;entryX=0.5;entryY=0;entryDx=0;entryDy=0;" parent="1" source="gjcAPQD0VYSav7Z1asvZ-151" target="gjcAPQD0VYSav7Z1asvZ-154" edge="1">
          <mxGeometry relative="1" as="geometry" />
        </mxCell>
        <mxCell id="gjcAPQD0VYSav7Z1asvZ-150" style="edgeStyle=orthogonalEdgeStyle;rounded=0;orthogonalLoop=1;jettySize=auto;html=1;exitX=0;exitY=0.5;exitDx=0;exitDy=0;entryX=1;entryY=0.5;entryDx=0;entryDy=0;" parent="1" source="gjcAPQD0VYSav7Z1asvZ-151" target="gjcAPQD0VYSav7Z1asvZ-155" edge="1">
          <mxGeometry relative="1" as="geometry" />
        </mxCell>
        <mxCell id="gjcAPQD0VYSav7Z1asvZ-151" value="" style="rhombus;whiteSpace=wrap;html=1;" parent="1" vertex="1">
          <mxGeometry x="500" y="240" width="20" height="20" as="geometry" />
        </mxCell>
        <mxCell id="gjcAPQD0VYSav7Z1asvZ-152" style="edgeStyle=orthogonalEdgeStyle;rounded=0;orthogonalLoop=1;jettySize=auto;html=1;exitX=0.5;exitY=1;exitDx=0;exitDy=0;entryX=0.5;entryY=0;entryDx=0;entryDy=0;" parent="1" source="gjcAPQD0VYSav7Z1asvZ-153" target="gjcAPQD0VYSav7Z1asvZ-148" edge="1">
          <mxGeometry relative="1" as="geometry" />
        </mxCell>
        <mxCell id="gjcAPQD0VYSav7Z1asvZ-153" value="" style="ellipse;whiteSpace=wrap;html=1;aspect=fixed;fillColor=#000000;" parent="1" vertex="1">
          <mxGeometry x="500" y="110" width="20" height="20" as="geometry" />
        </mxCell>
        <mxCell id="gjcAPQD0VYSav7Z1asvZ-166" style="edgeStyle=orthogonalEdgeStyle;rounded=0;orthogonalLoop=1;jettySize=auto;html=1;exitX=0.5;exitY=1;exitDx=0;exitDy=0;entryX=0.5;entryY=0;entryDx=0;entryDy=0;" parent="1" source="gjcAPQD0VYSav7Z1asvZ-154" target="gjcAPQD0VYSav7Z1asvZ-165" edge="1">
          <mxGeometry relative="1" as="geometry" />
        </mxCell>
        <mxCell id="gjcAPQD0VYSav7Z1asvZ-154" value="Login Page" style="rounded=0;whiteSpace=wrap;html=1;" parent="1" vertex="1">
          <mxGeometry x="445" y="290" width="130" height="40" as="geometry" />
        </mxCell>
        <mxCell id="gjcAPQD0VYSav7Z1asvZ-198" style="edgeStyle=orthogonalEdgeStyle;rounded=0;orthogonalLoop=1;jettySize=auto;html=1;exitX=0;exitY=0.5;exitDx=0;exitDy=0;entryX=0.75;entryY=1;entryDx=0;entryDy=0;" parent="1" source="gjcAPQD0VYSav7Z1asvZ-155" target="gjcAPQD0VYSav7Z1asvZ-196" edge="1">
          <mxGeometry relative="1" as="geometry" />
        </mxCell>
        <mxCell id="gjcAPQD0VYSav7Z1asvZ-155" value="Join Quiz with an Access Code" style="rounded=0;whiteSpace=wrap;html=1;" parent="1" vertex="1">
          <mxGeometry x="275" y="230" width="130" height="40" as="geometry" />
        </mxCell>
        <mxCell id="gjcAPQD0VYSav7Z1asvZ-157" value="" style="edgeStyle=orthogonalEdgeStyle;rounded=0;orthogonalLoop=1;jettySize=auto;html=1;exitX=1;exitY=0.5;exitDx=0;exitDy=0;entryX=0;entryY=0.5;entryDx=0;entryDy=0;" parent="1" source="gjcAPQD0VYSav7Z1asvZ-151" target="gjcAPQD0VYSav7Z1asvZ-158" edge="1">
          <mxGeometry relative="1" as="geometry">
            <mxPoint x="520" y="250" as="sourcePoint" />
            <mxPoint x="740" y="250" as="targetPoint" />
          </mxGeometry>
        </mxCell>
        <mxCell id="gjcAPQD0VYSav7Z1asvZ-163" style="edgeStyle=orthogonalEdgeStyle;rounded=0;orthogonalLoop=1;jettySize=auto;html=1;exitX=0.5;exitY=1;exitDx=0;exitDy=0;entryX=0.5;entryY=0;entryDx=0;entryDy=0;" parent="1" source="gjcAPQD0VYSav7Z1asvZ-158" target="gjcAPQD0VYSav7Z1asvZ-159" edge="1">
          <mxGeometry relative="1" as="geometry" />
        </mxCell>
        <mxCell id="gjcAPQD0VYSav7Z1asvZ-158" value="Register" style="rounded=0;whiteSpace=wrap;html=1;" parent="1" vertex="1">
          <mxGeometry x="660" y="230" width="130" height="40" as="geometry" />
        </mxCell>
        <mxCell id="gjcAPQD0VYSav7Z1asvZ-164" style="edgeStyle=orthogonalEdgeStyle;rounded=0;orthogonalLoop=1;jettySize=auto;html=1;exitX=0;exitY=0.5;exitDx=0;exitDy=0;entryX=1;entryY=0.5;entryDx=0;entryDy=0;" parent="1" source="gjcAPQD0VYSav7Z1asvZ-159" target="gjcAPQD0VYSav7Z1asvZ-154" edge="1">
          <mxGeometry relative="1" as="geometry" />
        </mxCell>
        <mxCell id="gjcAPQD0VYSav7Z1asvZ-159" value="Verify Email" style="rounded=0;whiteSpace=wrap;html=1;" parent="1" vertex="1">
          <mxGeometry x="660" y="290" width="130" height="40" as="geometry" />
        </mxCell>
        <mxCell id="gjcAPQD0VYSav7Z1asvZ-168" style="edgeStyle=orthogonalEdgeStyle;rounded=0;orthogonalLoop=1;jettySize=auto;html=1;exitX=0.5;exitY=1;exitDx=0;exitDy=0;entryX=0.5;entryY=0;entryDx=0;entryDy=0;" parent="1" source="gjcAPQD0VYSav7Z1asvZ-165" target="gjcAPQD0VYSav7Z1asvZ-167" edge="1">
          <mxGeometry relative="1" as="geometry" />
        </mxCell>
        <mxCell id="gjcAPQD0VYSav7Z1asvZ-176" style="edgeStyle=orthogonalEdgeStyle;rounded=0;orthogonalLoop=1;jettySize=auto;html=1;exitX=0;exitY=0.5;exitDx=0;exitDy=0;entryX=1;entryY=0.5;entryDx=0;entryDy=0;" parent="1" source="gjcAPQD0VYSav7Z1asvZ-165" target="gjcAPQD0VYSav7Z1asvZ-175" edge="1">
          <mxGeometry relative="1" as="geometry" />
        </mxCell>
        <mxCell id="gjcAPQD0VYSav7Z1asvZ-165" value="" style="rhombus;whiteSpace=wrap;html=1;" parent="1" vertex="1">
          <mxGeometry x="500" y="350" width="20" height="20" as="geometry" />
        </mxCell>
        <mxCell id="gjcAPQD0VYSav7Z1asvZ-172" style="edgeStyle=orthogonalEdgeStyle;rounded=0;orthogonalLoop=1;jettySize=auto;html=1;exitX=0.5;exitY=1;exitDx=0;exitDy=0;entryX=0.5;entryY=0;entryDx=0;entryDy=0;" parent="1" source="gjcAPQD0VYSav7Z1asvZ-167" target="gjcAPQD0VYSav7Z1asvZ-169" edge="1">
          <mxGeometry relative="1" as="geometry" />
        </mxCell>
        <mxCell id="gjcAPQD0VYSav7Z1asvZ-167" value="Forgot Password" style="rounded=0;whiteSpace=wrap;html=1;" parent="1" vertex="1">
          <mxGeometry x="445" y="390" width="130" height="40" as="geometry" />
        </mxCell>
        <mxCell id="gjcAPQD0VYSav7Z1asvZ-173" style="edgeStyle=orthogonalEdgeStyle;rounded=0;orthogonalLoop=1;jettySize=auto;html=1;exitX=1;exitY=0.5;exitDx=0;exitDy=0;entryX=0;entryY=0.5;entryDx=0;entryDy=0;" parent="1" source="gjcAPQD0VYSav7Z1asvZ-169" target="gjcAPQD0VYSav7Z1asvZ-171" edge="1">
          <mxGeometry relative="1" as="geometry" />
        </mxCell>
        <mxCell id="gjcAPQD0VYSav7Z1asvZ-169" value="Request Recovery Code over Email" style="rounded=0;whiteSpace=wrap;html=1;" parent="1" vertex="1">
          <mxGeometry x="445" y="450" width="130" height="40" as="geometry" />
        </mxCell>
        <mxCell id="gjcAPQD0VYSav7Z1asvZ-178" style="edgeStyle=orthogonalEdgeStyle;rounded=0;orthogonalLoop=1;jettySize=auto;html=1;exitX=0.185;exitY=-0.057;exitDx=0;exitDy=0;entryX=1;entryY=0.75;entryDx=0;entryDy=0;exitPerimeter=0;" parent="1" source="gjcAPQD0VYSav7Z1asvZ-171" target="gjcAPQD0VYSav7Z1asvZ-154" edge="1">
          <mxGeometry relative="1" as="geometry">
            <Array as="points">
              <mxPoint x="634" y="320" />
            </Array>
          </mxGeometry>
        </mxCell>
        <mxCell id="gjcAPQD0VYSav7Z1asvZ-171" value="Enter Recovery Code and New Password" style="rounded=0;whiteSpace=wrap;html=1;" parent="1" vertex="1">
          <mxGeometry x="610" y="450" width="130" height="40" as="geometry" />
        </mxCell>
        <mxCell id="gjcAPQD0VYSav7Z1asvZ-181" style="edgeStyle=orthogonalEdgeStyle;rounded=0;orthogonalLoop=1;jettySize=auto;html=1;exitX=0.5;exitY=1;exitDx=0;exitDy=0;entryX=0.5;entryY=0;entryDx=0;entryDy=0;" parent="1" source="gjcAPQD0VYSav7Z1asvZ-175" target="gjcAPQD0VYSav7Z1asvZ-180" edge="1">
          <mxGeometry relative="1" as="geometry" />
        </mxCell>
        <mxCell id="gjcAPQD0VYSav7Z1asvZ-175" value="Login" style="rounded=0;whiteSpace=wrap;html=1;" parent="1" vertex="1">
          <mxGeometry x="270" y="340" width="130" height="40" as="geometry" />
        </mxCell>
        <mxCell id="gjcAPQD0VYSav7Z1asvZ-183" style="edgeStyle=orthogonalEdgeStyle;rounded=0;orthogonalLoop=1;jettySize=auto;html=1;exitX=1;exitY=1;exitDx=0;exitDy=0;entryX=0;entryY=0.5;entryDx=0;entryDy=0;" parent="1" source="gjcAPQD0VYSav7Z1asvZ-185" target="gjcAPQD0VYSav7Z1asvZ-182" edge="1">
          <mxGeometry relative="1" as="geometry">
            <Array as="points">
              <mxPoint x="235" y="530" />
            </Array>
          </mxGeometry>
        </mxCell>
        <mxCell id="gjcAPQD0VYSav7Z1asvZ-215" style="edgeStyle=orthogonalEdgeStyle;rounded=0;orthogonalLoop=1;jettySize=auto;html=1;exitX=0.5;exitY=1;exitDx=0;exitDy=0;entryX=1;entryY=0.5;entryDx=0;entryDy=0;" parent="1" source="gjcAPQD0VYSav7Z1asvZ-180" target="gjcAPQD0VYSav7Z1asvZ-185" edge="1">
          <mxGeometry relative="1" as="geometry" />
        </mxCell>
        <mxCell id="gjcAPQD0VYSav7Z1asvZ-180" value="User Homepage" style="rounded=0;whiteSpace=wrap;html=1;" parent="1" vertex="1">
          <mxGeometry x="270" y="410" width="130" height="40" as="geometry" />
        </mxCell>
        <mxCell id="gjcAPQD0VYSav7Z1asvZ-184" style="edgeStyle=orthogonalEdgeStyle;rounded=0;orthogonalLoop=1;jettySize=auto;html=1;exitX=1;exitY=0.5;exitDx=0;exitDy=0;entryX=1;entryY=0.5;entryDx=0;entryDy=0;" parent="1" source="gjcAPQD0VYSav7Z1asvZ-182" target="gjcAPQD0VYSav7Z1asvZ-148" edge="1">
          <mxGeometry relative="1" as="geometry">
            <Array as="points">
              <mxPoint x="820" y="530" />
              <mxPoint x="820" y="170" />
            </Array>
          </mxGeometry>
        </mxCell>
        <mxCell id="gjcAPQD0VYSav7Z1asvZ-182" value="Log Out" style="rounded=0;whiteSpace=wrap;html=1;" parent="1" vertex="1">
          <mxGeometry x="270" y="510" width="130" height="40" as="geometry" />
        </mxCell>
        <mxCell id="gjcAPQD0VYSav7Z1asvZ-190" style="edgeStyle=orthogonalEdgeStyle;rounded=0;orthogonalLoop=1;jettySize=auto;html=1;exitX=0;exitY=0.5;exitDx=0;exitDy=0;entryX=0.5;entryY=1;entryDx=0;entryDy=0;" parent="1" source="gjcAPQD0VYSav7Z1asvZ-185" target="gjcAPQD0VYSav7Z1asvZ-189" edge="1">
          <mxGeometry relative="1" as="geometry" />
        </mxCell>
        <mxCell id="gjcAPQD0VYSav7Z1asvZ-216" style="edgeStyle=orthogonalEdgeStyle;rounded=0;orthogonalLoop=1;jettySize=auto;html=1;exitX=0.5;exitY=0;exitDx=0;exitDy=0;entryX=0;entryY=0.75;entryDx=0;entryDy=0;" parent="1" source="gjcAPQD0VYSav7Z1asvZ-185" target="gjcAPQD0VYSav7Z1asvZ-155" edge="1">
          <mxGeometry relative="1" as="geometry" />
        </mxCell>
        <mxCell id="j7WfX_FwH0XrXftfnP2g-3" style="edgeStyle=orthogonalEdgeStyle;rounded=0;orthogonalLoop=1;jettySize=auto;html=1;exitX=0;exitY=1;exitDx=0;exitDy=0;entryX=1;entryY=0.5;entryDx=0;entryDy=0;" edge="1" parent="1" source="gjcAPQD0VYSav7Z1asvZ-185" target="j7WfX_FwH0XrXftfnP2g-1">
          <mxGeometry relative="1" as="geometry">
            <Array as="points">
              <mxPoint x="225" y="530" />
            </Array>
          </mxGeometry>
        </mxCell>
        <mxCell id="gjcAPQD0VYSav7Z1asvZ-185" value="" style="rhombus;whiteSpace=wrap;html=1;" parent="1" vertex="1">
          <mxGeometry x="220" y="470" width="20" height="20" as="geometry" />
        </mxCell>
        <mxCell id="gjcAPQD0VYSav7Z1asvZ-195" style="edgeStyle=orthogonalEdgeStyle;rounded=0;orthogonalLoop=1;jettySize=auto;html=1;exitX=0.5;exitY=0;exitDx=0;exitDy=0;entryX=0.5;entryY=1;entryDx=0;entryDy=0;" parent="1" source="gjcAPQD0VYSav7Z1asvZ-189" target="gjcAPQD0VYSav7Z1asvZ-194" edge="1">
          <mxGeometry relative="1" as="geometry" />
        </mxCell>
        <mxCell id="gjcAPQD0VYSav7Z1asvZ-189" value="Generate New Quiz and Access Code" style="rounded=0;whiteSpace=wrap;html=1;" parent="1" vertex="1">
          <mxGeometry x="70" y="410" width="130" height="40" as="geometry" />
        </mxCell>
        <mxCell id="gjcAPQD0VYSav7Z1asvZ-208" style="edgeStyle=orthogonalEdgeStyle;rounded=0;orthogonalLoop=1;jettySize=auto;html=1;exitX=1;exitY=0.5;exitDx=0;exitDy=0;entryX=0;entryY=0.5;entryDx=0;entryDy=0;" parent="1" source="gjcAPQD0VYSav7Z1asvZ-191" target="gjcAPQD0VYSav7Z1asvZ-207" edge="1">
          <mxGeometry relative="1" as="geometry" />
        </mxCell>
        <mxCell id="gjcAPQD0VYSav7Z1asvZ-191" value="Play Quiz" style="rounded=0;whiteSpace=wrap;html=1;" parent="1" vertex="1">
          <mxGeometry x="105" y="150" width="130" height="40" as="geometry" />
        </mxCell>
        <mxCell id="gjcAPQD0VYSav7Z1asvZ-205" style="edgeStyle=orthogonalEdgeStyle;rounded=0;orthogonalLoop=1;jettySize=auto;html=1;exitX=0.5;exitY=0;exitDx=0;exitDy=0;entryX=0.25;entryY=1;entryDx=0;entryDy=0;" parent="1" source="gjcAPQD0VYSav7Z1asvZ-194" target="gjcAPQD0VYSav7Z1asvZ-196" edge="1">
          <mxGeometry relative="1" as="geometry" />
        </mxCell>
        <mxCell id="gjcAPQD0VYSav7Z1asvZ-194" value="Start Quiz" style="rounded=0;whiteSpace=wrap;html=1;" parent="1" vertex="1">
          <mxGeometry x="70" y="340" width="130" height="40" as="geometry" />
        </mxCell>
        <mxCell id="gjcAPQD0VYSav7Z1asvZ-206" style="edgeStyle=orthogonalEdgeStyle;rounded=0;orthogonalLoop=1;jettySize=auto;html=1;exitX=0.5;exitY=0;exitDx=0;exitDy=0;entryX=0.5;entryY=1;entryDx=0;entryDy=0;" parent="1" source="gjcAPQD0VYSav7Z1asvZ-196" target="gjcAPQD0VYSav7Z1asvZ-191" edge="1">
          <mxGeometry relative="1" as="geometry" />
        </mxCell>
        <mxCell id="gjcAPQD0VYSav7Z1asvZ-196" value="" style="rounded=0;whiteSpace=wrap;html=1;fillColor=#000000;" parent="1" vertex="1">
          <mxGeometry x="100" y="210" width="140" height="10" as="geometry" />
        </mxCell>
        <mxCell id="gjcAPQD0VYSav7Z1asvZ-209" style="edgeStyle=orthogonalEdgeStyle;rounded=0;orthogonalLoop=1;jettySize=auto;html=1;exitX=1;exitY=0.5;exitDx=0;exitDy=0;entryX=0;entryY=0.5;entryDx=0;entryDy=0;" parent="1" source="gjcAPQD0VYSav7Z1asvZ-207" target="gjcAPQD0VYSav7Z1asvZ-148" edge="1">
          <mxGeometry relative="1" as="geometry" />
        </mxCell>
        <mxCell id="gjcAPQD0VYSav7Z1asvZ-207" value="View Results and Live Scoreboard" style="rounded=0;whiteSpace=wrap;html=1;" parent="1" vertex="1">
          <mxGeometry x="275" y="150" width="130" height="40" as="geometry" />
        </mxCell>
        <mxCell id="j7WfX_FwH0XrXftfnP2g-2" style="edgeStyle=orthogonalEdgeStyle;rounded=0;orthogonalLoop=1;jettySize=auto;html=1;exitX=0;exitY=0.5;exitDx=0;exitDy=0;entryX=0.5;entryY=0;entryDx=0;entryDy=0;" edge="1" parent="1" source="j7WfX_FwH0XrXftfnP2g-1" target="gjcAPQD0VYSav7Z1asvZ-207">
          <mxGeometry relative="1" as="geometry" />
        </mxCell>
        <mxCell id="j7WfX_FwH0XrXftfnP2g-1" value="View Past Quizzes" style="rounded=0;whiteSpace=wrap;html=1;" vertex="1" parent="1">
          <mxGeometry x="60" y="510" width="130" height="40" as="geometry" />
        </mxCell>
      </root>
    </mxGraphModel>
  </diagram>
</mxfile>
